<mxfile host="app.diagrams.net" modified="2023-11-01T15:41:12.258Z" agent="Mozilla/5.0 (Windows NT 10.0; Win64; x64; rv:109.0) Gecko/20100101 Firefox/119.0" version="21.3.8" etag="YDh0IOEdTX0YNXtBKzWC" type="github">
  <diagram name="Page-1" id="n4vi1D5M3QYKHS8s60AK">
    <mxGraphModel>
      <root>
        <mxCell id="0" />
        <mxCell id="1" parent="0" />
      </root>
    </mxGraphModel>
  </diagram>
</mxfile>
